P2
# CREATOR: GIMP (slightly modified)
7 5
255
 0  255 255 192 255 255  0 
255  0  255 192 255  0  255
255 255  0   0   0  255 255
255  0  255 192 255  0  255
 0  255 255 192 255 255  0 
